D:\school\WTK\thesis\model\3dpredictsim\Results\batch_windlass\Pog_s1_tmt_bCst_d05_k800_WL10_ig24_act_TTC_GRF.mot
nRows=27
nColumns=19

name D:\school\WTK\thesis\model\3dpredictsim\Results\batch_windlass\Pog_s1_tmt_bCst_d05_k800_WL10_ig24_act_TTC_GRF.mot
datacolumns 19
datarows 27
range 0.5824690671 0.8853529820
endheader
time 	ground_force_vx	ground_force_vy	ground_force_vz	ground_force_px	ground_force_py	ground_force_pz	1_ground_force_vx	1_ground_force_vy	1_ground_force_vz	1_ground_force_px	1_ground_force_py	1_ground_force_pz	ground_torque_x	ground_torque_y	ground_torque_z	1_ground_torque_x	1_ground_torque_y	1_ground_torque_z
        0.5824690671	       96.8942662905	      405.4491033230	       -1.9019120932	        0.3627204026	        0.0000000000	        0.0321759997	      -41.2398782399	       29.6628020611	       -5.6511103683	        0.8827951357	        0.0000000000	       -0.0689342603	        0.0000000000	        0.0000000000	        0.0000000000	        0.0000000000	        0.0000000000	        0.0000000000	
        0.5941184484	       66.9173504585	      303.1233119812	        4.6881569223	        0.3714586496	        0.0000000000	        0.0277633597	      -98.9277096761	       84.8459811298	      -16.5115742215	        0.8951678045	        0.0000000000	       -0.0676886373	        0.0000000000	        0.0000000000	        0.0000000000	        0.0000000000	        0.0000000000	        0.0000000000	
        0.6057678298	       40.3111856668	      216.7780508719	       17.2864107034	        0.3828615769	        0.0000000000	        0.0218125755	     -129.3594888807	      265.5245634533	      -23.7962282163	        0.9136018487	        0.0000000000	       -0.0684010113	        0.0000000000	        0.0000000000	        0.0000000000	        0.0000000000	        0.0000000000	        0.0000000000	
        0.6174172111	       30.2379495362	      179.7008331173	       20.1481058745	        0.3838618676	        0.0000000000	        0.0212589952	      -90.5411175407	      592.4614363139	       10.9394531129	        0.9232040984	        0.0000000000	       -0.0676146859	        0.0000000000	        0.0000000000	        0.0000000000	        0.0000000000	        0.0000000000	        0.0000000000	
        0.6290665924	       24.3802365521	      130.5258693510	       18.9633752333	        0.3841875266	        0.0000000000	        0.0213087986	     -144.4863496142	      872.4702821588	       24.3928344807	        0.9359634201	        0.0000000000	       -0.0655286092	        0.0000000000	        0.0000000000	        0.0000000000	        0.0000000000	        0.0000000000	        0.0000000000	
        0.6407159738	        4.6017573101	       71.9351025111	       16.6515830579	        0.3833241692	        0.0000000000	        0.0216447510	     -165.2960520520	      975.8061300347	       26.1394254852	        0.9448338007	        0.0000000000	       -0.0635028266	        0.0000000000	        0.0000000000	        0.0000000000	        0.0000000000	        0.0000000000	        0.0000000000	
        0.6523653551	       -6.4083311882	       11.7222446391	        2.6587571285	        0.3796720354	        0.0000000000	        0.0207538049	     -155.8916958177	      941.3696291115	       24.9646297033	        0.9493120797	        0.0000000000	       -0.0622388717	        0.0000000000	        0.0000000000	        0.0000000000	        0.0000000000	        0.0000000000	        0.0000000000	
        0.6640147365	       -2.0108916185	        1.6859123139	       -0.1232927332	        0.0000000000	        0.0000000000	        0.0000000000	     -131.8142591250	      864.0674340115	       24.5274118592	        0.9525256439	        0.0000000000	       -0.0614612370	        0.0000000000	        0.0000000000	        0.0000000000	        0.0000000000	        0.0000000000	        0.0000000000	
        0.6756641178	       -8.2050186344	        5.9870649947	       -0.6601092515	        0.0000000000	        0.0000000000	        0.0000000000	     -116.4875132900	      798.2357387582	       21.7634571471	        0.9558889979	        0.0000000000	       -0.0608970201	        0.0000000000	        0.0000000000	        0.0000000000	        0.0000000000	        0.0000000000	        0.0000000000	
        0.6873134992	       -6.3409987309	        4.0490790411	       -0.5426908105	        0.0000000000	        0.0000000000	        0.0000000000	     -103.0373457376	      757.2360630399	       21.3188671961	        0.9587109925	        0.0000000000	       -0.0605084994	        0.0000000000	        0.0000000000	        0.0000000000	        0.0000000000	        0.0000000000	        0.0000000000	
        0.6989628805	       -4.4497161330	        2.5829326039	       -0.3905801912	        0.0000000000	        0.0000000000	        0.0000000000	      -89.6974136485	      724.5484080594	       22.3564436721	        0.9612665991	        0.0000000000	       -0.0602306057	        0.0000000000	        0.0000000000	        0.0000000000	        0.0000000000	        0.0000000000	        0.0000000000	
        0.7106122618	       -2.9845220953	        1.6007266628	       -0.2739752457	        0.0000000000	        0.0000000000	        0.0000000000	      -76.7231543148	      695.8076515757	       23.3058537885	        0.9644568176	        0.0000000000	       -0.0599276527	        0.0000000000	        0.0000000000	        0.0000000000	        0.0000000000	        0.0000000000	        0.0000000000	
        0.7222616432	       -2.4066624160	        1.2211476043	       -0.2160138247	        0.0000000000	        0.0000000000	        0.0000000000	      -65.7371033683	      672.5778916522	       23.6046777094	        0.9689079447	        0.0000000000	       -0.0594599234	        0.0000000000	        0.0000000000	        0.0000000000	        0.0000000000	        0.0000000000	        0.0000000000	
        0.7339110245	       -1.7402985827	        0.8467768183	       -0.1530262356	        0.0000000000	        0.0000000000	        0.0000000000	      -57.5142409651	      653.2821399716	       23.9416056748	        0.9741945602	        0.0000000000	       -0.0588237888	        0.0000000000	        0.0000000000	        0.0000000000	        0.0000000000	        0.0000000000	        0.0000000000	
        0.7455604059	       -1.2172051058	        0.5725535501	       -0.1043161061	        0.0000000000	        0.0000000000	        0.0000000000	      -50.6489383233	      637.1102938303	       24.1406627807	        0.9799615388	        0.0000000000	       -0.0580710197	        0.0000000000	        0.0000000000	        0.0000000000	        0.0000000000	        0.0000000000	        0.0000000000	
        0.7572097872	       -0.8864814799	        0.4057973354	       -0.0735431098	        0.0000000000	        0.0000000000	        0.0000000000	      -45.2653478505	      622.9984551949	       24.0271985808	        0.9859529775	        0.0000000000	       -0.0572337292	        0.0000000000	        0.0000000000	        0.0000000000	        0.0000000000	        0.0000000000	        0.0000000000	
        0.7688591685	       -0.6885949388	        0.3082805421	       -0.0546884396	        0.0000000000	        0.0000000000	        0.0000000000	      -40.3848013105	      610.2060923487	       23.4950376355	        0.9918740364	        0.0000000000	       -0.0563706637	        0.0000000000	        0.0000000000	        0.0000000000	        0.0000000000	        0.0000000000	        0.0000000000	
        0.7805085499	       -0.5766435971	        0.2532444346	       -0.0433285722	        0.0000000000	        0.0000000000	        0.0000000000	      -35.9420034046	      599.4745093415	       22.6525593461	        0.9977275433	        0.0000000000	       -0.0554843515	        0.0000000000	        0.0000000000	        0.0000000000	        0.0000000000	        0.0000000000	        0.0000000000	
        0.7921579312	       -0.5261476313	        0.2269610590	       -0.0368338052	        0.0000000000	        0.0000000000	        0.0000000000	      -32.0302556022	      590.3817323686	       21.5287878816	        1.0033213992	        0.0000000000	       -0.0546095381	        0.0000000000	        0.0000000000	        0.0000000000	        0.0000000000	        0.0000000000	        0.0000000000	
        0.8038073126	       -0.5232484276	        0.2218172486	       -0.0336633188	        0.0000000000	        0.0000000000	        0.0000000000	      -28.2938637982	      582.3651351200	       20.3962830781	        1.0086104029	        0.0000000000	       -0.0537605825	        0.0000000000	        0.0000000000	        0.0000000000	        0.0000000000	        0.0000000000	        0.0000000000	
        0.8154566939	       -0.5594361174	        0.2332321375	       -0.0327969420	        0.0000000000	        0.0000000000	        0.0000000000	      -24.7956033455	      575.3559157405	       19.7207839777	        1.0136831899	        0.0000000000	       -0.0529176737	        0.0000000000	        0.0000000000	        0.0000000000	        0.0000000000	        0.0000000000	        0.0000000000	
        0.8271060752	       -0.6286048493	        0.2580501186	       -0.0334810585	        0.0000000000	        0.0000000000	        0.0000000000	      -21.5283545196	      569.0178620388	       19.3571779636	        1.0185581893	        0.0000000000	       -0.0520799867	        0.0000000000	        0.0000000000	        0.0000000000	        0.0000000000	        0.0000000000	        0.0000000000	
        0.8387554566	       -0.7242513669	        0.2932520469	       -0.0350170959	        0.0000000000	        0.0000000000	        0.0000000000	      -18.4152954695	      563.1669906834	       19.1694442257	        1.0232360509	        0.0000000000	       -0.0512512227	        0.0000000000	        0.0000000000	        0.0000000000	        0.0000000000	        0.0000000000	        0.0000000000	
        0.8504048379	       -0.8397088880	        0.3360201312	       -0.0369110006	        0.0000000000	        0.0000000000	        0.0000000000	      -15.4874465905	      557.8027152632	       19.1277134840	        1.0277034755	        0.0000000000	       -0.0504369563	        0.0000000000	        0.0000000000	        0.0000000000	        0.0000000000	        0.0000000000	        0.0000000000	
        0.8620542193	       -0.9649031204	        0.3824131144	       -0.0386250546	        0.0000000000	        0.0000000000	        0.0000000000	      -12.7138007907	      553.2182623128	       19.0456657002	        1.0319233001	        0.0000000000	       -0.0496502289	        0.0000000000	        0.0000000000	        0.0000000000	        0.0000000000	        0.0000000000	        0.0000000000	
        0.8737036006	       -1.0884827759	        0.4281377842	       -0.0394974508	        0.0000000000	        0.0000000000	        0.0000000000	       -9.9905361258	      549.7657290242	       18.8147992898	        1.0358252148	        0.0000000000	       -0.0489093474	        0.0000000000	        0.0000000000	        0.0000000000	        0.0000000000	        0.0000000000	        0.0000000000	
        0.8853529820	       -1.2036068427	        0.4707327703	       -0.0388498543	        0.0000000000	        0.0000000000	        0.0000000000	       -7.1398264032	      547.8280252335	       18.0355786498	        1.0393114465	        0.0000000000	       -0.0482370241	        0.0000000000	        0.0000000000	        0.0000000000	        0.0000000000	        0.0000000000	        0.0000000000	
